# xmcd
#
# Track frame offsets: 
#        150
#        11756
#        24016
#        41766
#        58539
#        81478
#        96589
#        113895
#        132058
#        150323
#
# Disc length: 2265 seconds
#
# Revision: 1
# Processed by: cddbd v1.5.2PL0 Copyright (c) Steve Scherf et al.
# Submitted via: ExactAudioCopyFreeDBPlugin 1.0
#
DISCID=7608d70a
DTITLE=Barrence Whitfield - Barrence Whitfield eta Petti and The Bloodyh
DTITLE=otsak
DYEAR=2009
DGENRE=Blues
TTITLE0=Bat Ez Bada Bertze (ft Petti and The Bloodyhotsak)
TTITLE1=Sugar Falls (ft Petti and The Bloodyhotsak)
TTITLE2=Ehiza (ft  Petti and The Bloodyhotsak)
TTITLE3=Kerosene Men (ft Petti and The Bloodyhotsak)
TTITLE4=The Lonesome Cowboy (ft Petti and The Bloodyhotsak)
TTITLE5=No Reason (ft Petti and The Bloodyhotsak)
TTITLE6=Solasaldia (ft Petti and The Bloodyhotsak)
TTITLE7=Veterans Day (ft Petti and The Bloodyhotsak)
TTITLE8=Thousand Dollar Car (ft Petti and The Bloodyhotsak)
TTITLE9=Min Ixila (ft Petti and The Bloodyhotsak)
EXTD=
EXTT0=
EXTT1=
EXTT2=
EXTT3=
EXTT4=
EXTT5=
EXTT6=
EXTT7=
EXTT8=
EXTT9=
PLAYORDER=
